<?xml version="1.0" ?><!DOCTYPE svg  PUBLIC '-//W3C//DTD SVG 1.1//EN'  'http://www.w3.org/Graphics/SVG/1.1/DTD/svg11.dtd'><svg xmlns="http://www.w3.org/2000/svg" xmlns:xlink="http://www.w3.org/1999/xlink"><symbol id="social_tube" viewBox="0 0 512 512" xml:space="preserve" xmlns="http://www.w3.org/2000/svg"><style>.ast0{fill:#e93f73}.ast1{fill:#201600}</style><path class="ast0" d="M398.8 245.6H113.2c-45.4 0-82.2 36.8-82.2 82.2v66.1c0 45.4 36.8 82.2 82.2 82.2h285.6c45.4 0 82.2-36.8 82.2-82.2v-66.1c0-45.4-36.8-82.2-82.2-82.2zM173.2 297h-26.5v131.9H121V297H94.5v-22.4h78.7V297zm75 131.9h-22.8v-12.5c-4.2 4.6-8.6 8.1-13.1 10.5-4.5 2.5-8.9 3.6-13.2 3.6-5.3 0-9.2-1.7-11.9-5.1-2.6-3.4-4-8.4-4-15.3V315H206v87.4c0 2.7.5 4.6 1.4 5.8 1 1.2 2.6 1.8 4.7 1.8 1.6 0 3.8-.8 6.3-2.4 2.6-1.6 4.9-3.6 7.1-6.1V315h22.8v113.9zm82.6-23.5c0 8-1.8 14.2-5.4 18.5-3.5 4.3-8.7 6.4-15.5 6.4-4.5 0-8.4-.8-11.9-2.5-3.5-1.6-6.8-4.2-9.7-7.7v8.7h-23V274.6h23v49.7c3.1-3.4 6.4-6.1 9.7-7.9 3.5-1.8 7-2.7 10.5-2.7 7.2 0 12.7 2.4 16.5 7.3 3.8 4.9 5.7 12 5.7 21.3v63.1zm79-30.7h-43.5v21.5c0 6 .7 10.2 2.2 12.5 1.5 2.3 4.1 3.5 7.7 3.5 3.8 0 6.4-1 7.9-2.9 1.5-2 2.3-6.3 2.3-13V391h23.4v5.8c0 11.7-2.8 20.5-8.6 26.4-5.7 5.9-14.2 8.8-25.5 8.8-10.2 0-18.3-3.1-24.1-9.4-5.8-6.2-8.8-14.8-8.8-25.8v-51.2c0-9.8 3.2-17.9 9.7-24.2 6.4-6.2 14.7-9.3 24.9-9.3 10.4 0 18.4 2.9 24 8.6 5.6 5.8 8.4 14 8.4 24.8v29.2z"/><path class="ast0" d="M376.4 332.1c-3.6 0-6.2 1-7.8 3.1-1.6 2-2.4 5.4-2.4 10.2V357h20.1v-11.5c0-4.8-.8-8.2-2.4-10.2-1.5-2.1-4.1-3.2-7.5-3.2zM297.9 331.8c-1.6 0-3.2.3-4.8 1.1-1.6.7-3.1 1.9-4.7 3.5v71c1.8 1.8 3.6 3.2 5.4 4.1 1.8.8 3.6 1.2 5.5 1.2 2.8 0 4.8-.8 6.1-2.4 1.3-1.6 2-4.2 2-7.8v-58.8c0-3.9-.8-6.8-2.4-8.8-1.7-2.1-4.1-3.1-7.1-3.1z"/><path class="ast1" d="M150.6 206h28.8v-70.5L213 35.9h-29.3l-17.8 68H164l-18.7-68h-29.1l34.4 102.7zM252.1 209.2c11.6 0 20.8-3.1 27.5-9.2 6.6-6.1 9.9-14.5 9.9-25.3v-64.8c0-9.5-3.4-17.4-10.1-23.5-6.8-6-15.5-9.1-26.1-9.1-11.6 0-20.9 2.9-27.8 8.6-6.9 5.8-10.3 13.5-10.3 23.2v65c0 10.7 3.4 19.1 10.1 25.4 6.6 6.5 15.6 9.7 26.8 9.7zm-10.6-100.9c0-2.7 1-4.9 2.9-6.7 2-1.7 4.5-2.5 7.6-2.5 3.4 0 6.1.8 8.2 2.5 2.1 1.7 3.1 3.9 3.1 6.7v68.4c0 3.4-1 6-3.1 7.9-2 1.9-4.8 2.9-8.3 2.9-3.4 0-6-.9-7.8-2.8-1.8-1.9-2.7-4.5-2.7-8v-68.4zM328.2 207.8c4.8 0 9.8-1.4 14.9-4 5.1-2.7 10.1-6.6 14.8-11.7V206h25.6V80.5h-25.6v95.2c-2.4 2.7-5 5-7.9 6.7-2.9 1.8-5.3 2.6-7.2 2.6-2.4 0-4.2-.7-5.2-2-1.1-1.3-1.7-3.5-1.7-6.4V80.5h-25.6v104.9c0 7.5 1.5 13.1 4.5 16.8 3 3.7 7.4 5.6 13.4 5.6z"/></symbol><symbol viewBox="0 0 50 50" id="tube_you" xmlns="http://www.w3.org/2000/svg"><path d="M39.7 19s-.3-2.1-1.2-3c-1.1-1.2-2.4-1.2-3-1.3-4.2-.2-10.5-.2-10.5-.2s-6.3 0-10.5.3c-.6.1-1.9.1-3 1.3-.9.9-1.2 3-1.2 3s-.3 2-.3 4.4v3c0 2.4.3 4.5.3 4.5s.3 2.1 1.2 3c1.1 1.2 2.6 1.2 3.3 1.3 2.4.2 10.2.2 10.2.2s6.3.1 10.5-.2c.6-.1 1.9-.1 3-1.3.9-.9 1.2-3 1.2-3s.3-2.1.3-4.5v-3c0-2.4-.3-4.5-.3-4.5zM21 29v-8l8 4-8 4z" fill="#CF3427"/><path d="M25 1C11.7 1 1 11.7 1 25s10.7 24 24 24 24-10.7 24-24S38.3 1 25 1zm0 43C14.5 44 6 35.5 6 25S14.5 6 25 6s19 8.5 19 19-8.5 19-19 19z" fill="#CF3427"/></symbol></svg>